{
	"patcher" : 	{
		"fileversion" : 1,
		"appversion" : 		{
			"major" : 8,
			"minor" : 6,
			"revision" : 5,
			"architecture" : "x64",
			"modernui" : 1
		}
,
		"classnamespace" : "box",
		"rect" : [ 34.0, 77.0, 1075.0, 705.0 ],
		"bglocked" : 0,
		"openinpresentation" : 0,
		"default_fontsize" : 12.0,
		"default_fontface" : 0,
		"default_fontname" : "Arial",
		"gridonopen" : 1,
		"gridsize" : [ 15.0, 15.0 ],
		"gridsnaponopen" : 1,
		"objectsnaponopen" : 1,
		"statusbarvisible" : 2,
		"toolbarvisible" : 1,
		"lefttoolbarpinned" : 0,
		"toptoolbarpinned" : 0,
		"righttoolbarpinned" : 0,
		"bottomtoolbarpinned" : 0,
		"toolbars_unpinned_last_save" : 0,
		"tallnewobj" : 0,
		"boxanimatetime" : 200,
		"enablehscroll" : 1,
		"enablevscroll" : 1,
		"devicewidth" : 0.0,
		"description" : "",
		"digest" : "",
		"tags" : "",
		"style" : "",
		"subpatcher_template" : "",
		"assistshowspatchername" : 0,
		"boxes" : [ 			{
				"box" : 				{
					"comment" : "",
					"id" : "obj-141",
					"index" : 0,
					"maxclass" : "outlet",
					"numinlets" : 1,
					"numoutlets" : 0,
					"patching_rect" : [ 349.333343744277954, 720.000021457672119, 30.0, 30.0 ]
				}

			}
, 			{
				"box" : 				{
					"comment" : "LEFT",
					"id" : "obj-140",
					"index" : 0,
					"maxclass" : "outlet",
					"numinlets" : 1,
					"numoutlets" : 0,
					"patching_rect" : [ 157.333338022232056, 720.000021457672119, 30.0, 30.0 ]
				}

			}
, 			{
				"box" : 				{
					"id" : "obj-139",
					"maxclass" : "comment",
					"numinlets" : 1,
					"numoutlets" : 0,
					"patching_rect" : [ 294.666675448417664, 28.000000834465027, 57.0, 20.0 ],
					"text" : "harmony",
					"textjustification" : 1
				}

			}
, 			{
				"box" : 				{
					"comment" : "harmony",
					"id" : "obj-29",
					"index" : 0,
					"maxclass" : "inlet",
					"numinlets" : 0,
					"numoutlets" : 1,
					"outlettype" : [ "" ],
					"patching_rect" : [ 308.000009179115295, 50.666668176651001, 30.0, 30.0 ]
				}

			}
, 			{
				"box" : 				{
					"id" : "obj-21",
					"maxclass" : "comment",
					"numinlets" : 1,
					"numoutlets" : 0,
					"patching_rect" : [ 84.000002503395081, 28.000000834465027, 35.0, 20.0 ],
					"text" : "ends",
					"textjustification" : 1
				}

			}
, 			{
				"box" : 				{
					"id" : "obj-26",
					"linecount" : 2,
					"maxclass" : "comment",
					"numinlets" : 1,
					"numoutlets" : 0,
					"patching_rect" : [ 10.666666984558105, 14.666667103767395, 66.0, 34.0 ],
					"presentation_linecount" : 2,
					"text" : "midi value (raw)",
					"textjustification" : 1
				}

			}
, 			{
				"box" : 				{
					"comment" : "control value (raw)",
					"id" : "obj-28",
					"index" : 0,
					"maxclass" : "inlet",
					"numinlets" : 0,
					"numoutlets" : 1,
					"outlettype" : [ "" ],
					"patching_rect" : [ 28.000000834465027, 50.666668176651001, 30.0, 30.0 ]
				}

			}
, 			{
				"box" : 				{
					"comment" : "ends (0 / 1)",
					"id" : "obj-345",
					"index" : 0,
					"maxclass" : "inlet",
					"numinlets" : 0,
					"numoutlets" : 1,
					"outlettype" : [ "" ],
					"patching_rect" : [ 86.666669249534607, 50.666668176651001, 30.0, 30.0 ]
				}

			}
, 			{
				"box" : 				{
					"id" : "obj-136",
					"maxclass" : "message",
					"numinlets" : 2,
					"numoutlets" : 1,
					"outlettype" : [ "" ],
					"patching_rect" : [ 466.666680574417114, 605.333351373672485, 45.0, 22.0 ],
					"text" : "$1 100"
				}

			}
, 			{
				"box" : 				{
					"id" : "obj-134",
					"maxclass" : "newobj",
					"numinlets" : 2,
					"numoutlets" : 2,
					"outlettype" : [ "signal", "bang" ],
					"patching_rect" : [ 466.666680574417114, 646.666685938835144, 34.0, 22.0 ],
					"text" : "line~"
				}

			}
, 			{
				"box" : 				{
					"id" : "obj-133",
					"maxclass" : "newobj",
					"numinlets" : 2,
					"numoutlets" : 1,
					"outlettype" : [ "int" ],
					"patching_rect" : [ 464.000013828277588, 444.00001323223114, 43.0, 22.0 ],
					"text" : "- 1000"
				}

			}
, 			{
				"box" : 				{
					"id" : "obj-127",
					"maxclass" : "newobj",
					"numinlets" : 2,
					"numoutlets" : 1,
					"outlettype" : [ "float" ],
					"patching_rect" : [ 464.000013828277588, 474.666680812835693, 45.0, 22.0 ],
					"text" : "/ 1000."
				}

			}
, 			{
				"box" : 				{
					"id" : "obj-128",
					"maxclass" : "newobj",
					"numinlets" : 2,
					"numoutlets" : 2,
					"outlettype" : [ "", "" ],
					"patching_rect" : [ 466.666680574417114, 561.3333500623703, 56.0, 22.0 ],
					"text" : "zl lookup"
				}

			}
, 			{
				"box" : 				{
					"id" : "obj-129",
					"maxclass" : "newobj",
					"numinlets" : 2,
					"numoutlets" : 3,
					"outlettype" : [ "bang", "bang", "int" ],
					"patching_rect" : [ 464.000013828277588, 390.666678309440613, 40.0, 22.0 ],
					"text" : "Uzi"
				}

			}
, 			{
				"box" : 				{
					"id" : "obj-130",
					"maxclass" : "newobj",
					"numinlets" : 2,
					"numoutlets" : 1,
					"outlettype" : [ "" ],
					"patching_rect" : [ 464.000013828277588, 417.333345770835876, 79.0, 22.0 ],
					"text" : "random 2000"
				}

			}
, 			{
				"box" : 				{
					"id" : "obj-131",
					"maxclass" : "newobj",
					"numinlets" : 2,
					"numoutlets" : 2,
					"outlettype" : [ "", "" ],
					"patching_rect" : [ 504.000015020370483, 512.000015258789062, 51.0, 22.0 ],
					"text" : "zl.group"
				}

			}
, 			{
				"box" : 				{
					"id" : "obj-132",
					"maxclass" : "newobj",
					"numinlets" : 1,
					"numoutlets" : 2,
					"outlettype" : [ "bang", "int" ],
					"patching_rect" : [ 464.000013828277588, 353.333343863487244, 40.0, 22.0 ],
					"text" : "t b i"
				}

			}
, 			{
				"box" : 				{
					"id" : "obj-126",
					"maxclass" : "newobj",
					"numinlets" : 3,
					"numoutlets" : 2,
					"outlettype" : [ "signal", "signal" ],
					"patching_rect" : [ 157.333338022232056, 690.666687250137329, 211.0, 22.0 ],
					"text" : "gen~ stereoPan"
				}

			}
, 			{
				"box" : 				{
					"id" : "obj-124",
					"maxclass" : "newobj",
					"numinlets" : 2,
					"numoutlets" : 1,
					"outlettype" : [ "int" ],
					"patching_rect" : [ 373.333344459533691, 476.000014185905457, 39.0, 22.0 ],
					"text" : "+ 200"
				}

			}
, 			{
				"box" : 				{
					"id" : "obj-123",
					"maxclass" : "newobj",
					"numinlets" : 2,
					"numoutlets" : 1,
					"outlettype" : [ "int" ],
					"patching_rect" : [ 281.333341717720032, 476.000014185905457, 32.0, 22.0 ],
					"text" : "+ 20"
				}

			}
, 			{
				"box" : 				{
					"id" : "obj-120",
					"maxclass" : "newobj",
					"numinlets" : 1,
					"numoutlets" : 1,
					"outlettype" : [ "bang" ],
					"patching_rect" : [ 560.000016689300537, 512.000015258789062, 58.0, 22.0 ],
					"text" : "loadbang"
				}

			}
, 			{
				"box" : 				{
					"id" : "obj-119",
					"linecount" : 4,
					"maxclass" : "message",
					"numinlets" : 2,
					"numoutlets" : 1,
					"outlettype" : [ "" ],
					"patching_rect" : [ 560.000016689300537, 541.333349466323853, 186.666672229766846, 64.0 ],
					"presentation_linecount" : 2,
					"text" : "read \"C/:Users/tatsu/Desktop/sounds to use/soundfonts/Manthey Klaviano/Manthey Klaviano.sfz\""
				}

			}
, 			{
				"box" : 				{
					"id" : "obj-118",
					"maxclass" : "newobj",
					"numinlets" : 2,
					"numoutlets" : 2,
					"outlettype" : [ "signal", "signal" ],
					"patching_rect" : [ 157.333338022232056, 649.33335268497467, 115.0, 22.0 ],
					"text" : "sfizz~"
				}

			}
, 			{
				"box" : 				{
					"id" : "obj-117",
					"maxclass" : "newobj",
					"numinlets" : 2,
					"numoutlets" : 1,
					"outlettype" : [ "int" ],
					"patching_rect" : [ 194.666672468185425, 444.00001323223114, 38.0, 22.0 ],
					"text" : "+"
				}

			}
, 			{
				"box" : 				{
					"id" : "obj-116",
					"maxclass" : "newobj",
					"numinlets" : 1,
					"numoutlets" : 2,
					"outlettype" : [ "float", "bang" ],
					"patching_rect" : [ 194.666672468185425, 356.00001060962677, 38.0, 22.0 ],
					"text" : "t f b"
				}

			}
, 			{
				"box" : 				{
					"id" : "obj-111",
					"maxclass" : "newobj",
					"numinlets" : 2,
					"numoutlets" : 1,
					"outlettype" : [ "int" ],
					"patching_rect" : [ 213.333339691162109, 416.000012397766113, 30.0, 22.0 ],
					"text" : "* 12"
				}

			}
, 			{
				"box" : 				{
					"id" : "obj-110",
					"maxclass" : "newobj",
					"numinlets" : 2,
					"numoutlets" : 1,
					"outlettype" : [ "" ],
					"patching_rect" : [ 213.333339691162109, 388.000011563301086, 59.0, 22.0 ],
					"text" : "random 6"
				}

			}
, 			{
				"box" : 				{
					"id" : "obj-109",
					"maxclass" : "newobj",
					"numinlets" : 2,
					"numoutlets" : 1,
					"outlettype" : [ "int" ],
					"patching_rect" : [ 194.666672468185425, 328.000009775161743, 36.0, 22.0 ],
					"text" : "% 12"
				}

			}
, 			{
				"box" : 				{
					"id" : "obj-108",
					"maxclass" : "newobj",
					"numinlets" : 2,
					"numoutlets" : 1,
					"outlettype" : [ "int" ],
					"patching_rect" : [ 194.666672468185425, 472.000014066696167, 32.0, 22.0 ],
					"text" : "+ 36"
				}

			}
, 			{
				"box" : 				{
					"id" : "obj-98",
					"maxclass" : "newobj",
					"numinlets" : 2,
					"numoutlets" : 2,
					"outlettype" : [ "", "" ],
					"patching_rect" : [ 236.000007033348083, 230.666673541069031, 37.0, 22.0 ],
					"text" : "zl len"
				}

			}
, 			{
				"box" : 				{
					"id" : "obj-99",
					"maxclass" : "newobj",
					"numinlets" : 2,
					"numoutlets" : 1,
					"outlettype" : [ "" ],
					"patching_rect" : [ 194.666672468185425, 260.000007748603821, 60.0, 22.0 ],
					"text" : "random"
				}

			}
, 			{
				"box" : 				{
					"id" : "obj-100",
					"maxclass" : "newobj",
					"numinlets" : 2,
					"numoutlets" : 2,
					"outlettype" : [ "", "" ],
					"patching_rect" : [ 194.666672468185425, 296.000008821487427, 56.0, 22.0 ],
					"text" : "zl lookup"
				}

			}
, 			{
				"box" : 				{
					"id" : "obj-102",
					"maxclass" : "newobj",
					"numinlets" : 1,
					"numoutlets" : 2,
					"outlettype" : [ "bang", "int" ],
					"patching_rect" : [ 165.333338260650635, 186.666672229766846, 29.5, 22.0 ],
					"text" : "t b i"
				}

			}
, 			{
				"box" : 				{
					"id" : "obj-103",
					"maxclass" : "newobj",
					"numinlets" : 2,
					"numoutlets" : 3,
					"outlettype" : [ "bang", "bang", "int" ],
					"patching_rect" : [ 194.666672468185425, 230.666673541069031, 40.0, 22.0 ],
					"text" : "Uzi"
				}

			}
, 			{
				"box" : 				{
					"id" : "obj-104",
					"maxclass" : "newobj",
					"numinlets" : 2,
					"numoutlets" : 2,
					"outlettype" : [ "", "" ],
					"patching_rect" : [ 194.666672468185425, 508.000015139579773, 51.0, 22.0 ],
					"text" : "zl.group"
				}

			}
, 			{
				"box" : 				{
					"id" : "obj-93",
					"maxclass" : "newobj",
					"numinlets" : 2,
					"numoutlets" : 2,
					"outlettype" : [ "", "" ],
					"patching_rect" : [ 373.333344459533691, 561.3333500623703, 56.0, 22.0 ],
					"text" : "zl lookup"
				}

			}
, 			{
				"box" : 				{
					"id" : "obj-94",
					"maxclass" : "newobj",
					"numinlets" : 2,
					"numoutlets" : 3,
					"outlettype" : [ "bang", "bang", "int" ],
					"patching_rect" : [ 373.333344459533691, 420.000012516975403, 40.0, 22.0 ],
					"text" : "Uzi"
				}

			}
, 			{
				"box" : 				{
					"id" : "obj-95",
					"maxclass" : "newobj",
					"numinlets" : 2,
					"numoutlets" : 1,
					"outlettype" : [ "" ],
					"patching_rect" : [ 373.333344459533691, 446.666679978370667, 73.0, 22.0 ],
					"text" : "random 800"
				}

			}
, 			{
				"box" : 				{
					"id" : "obj-96",
					"maxclass" : "newobj",
					"numinlets" : 2,
					"numoutlets" : 2,
					"outlettype" : [ "", "" ],
					"patching_rect" : [ 410.666678905487061, 512.000015258789062, 51.0, 22.0 ],
					"text" : "zl.group"
				}

			}
, 			{
				"box" : 				{
					"id" : "obj-97",
					"maxclass" : "newobj",
					"numinlets" : 1,
					"numoutlets" : 2,
					"outlettype" : [ "bang", "int" ],
					"patching_rect" : [ 373.333344459533691, 381.333344697952271, 40.0, 22.0 ],
					"text" : "t b i"
				}

			}
, 			{
				"box" : 				{
					"id" : "obj-92",
					"maxclass" : "newobj",
					"numinlets" : 2,
					"numoutlets" : 2,
					"outlettype" : [ "", "" ],
					"patching_rect" : [ 281.333341717720032, 561.3333500623703, 56.0, 22.0 ],
					"text" : "zl lookup"
				}

			}
, 			{
				"box" : 				{
					"id" : "obj-88",
					"maxclass" : "newobj",
					"numinlets" : 2,
					"numoutlets" : 3,
					"outlettype" : [ "bang", "bang", "int" ],
					"patching_rect" : [ 281.333341717720032, 420.000012516975403, 40.0, 22.0 ],
					"text" : "Uzi"
				}

			}
, 			{
				"box" : 				{
					"id" : "obj-89",
					"maxclass" : "newobj",
					"numinlets" : 2,
					"numoutlets" : 1,
					"outlettype" : [ "" ],
					"patching_rect" : [ 281.333341717720032, 446.666679978370667, 66.0, 22.0 ],
					"text" : "random 80"
				}

			}
, 			{
				"box" : 				{
					"id" : "obj-90",
					"maxclass" : "newobj",
					"numinlets" : 2,
					"numoutlets" : 2,
					"outlettype" : [ "", "" ],
					"patching_rect" : [ 318.666676163673401, 512.000015258789062, 51.0, 22.0 ],
					"text" : "zl.group"
				}

			}
, 			{
				"box" : 				{
					"id" : "obj-91",
					"maxclass" : "newobj",
					"numinlets" : 1,
					"numoutlets" : 2,
					"outlettype" : [ "bang", "int" ],
					"patching_rect" : [ 281.333341717720032, 381.333344697952271, 40.0, 22.0 ],
					"text" : "t b i"
				}

			}
, 			{
				"box" : 				{
					"id" : "obj-79",
					"maxclass" : "newobj",
					"numinlets" : 2,
					"numoutlets" : 1,
					"outlettype" : [ "int" ],
					"patching_rect" : [ 86.666669249534607, 141.333337545394897, 29.5, 22.0 ],
					"text" : "+ 2"
				}

			}
, 			{
				"box" : 				{
					"id" : "obj-73",
					"maxclass" : "newobj",
					"numinlets" : 2,
					"numoutlets" : 2,
					"outlettype" : [ "", "" ],
					"patching_rect" : [ 102.666669726371765, 508.000015139579773, 47.0, 22.0 ],
					"text" : "zl.iter 1"
				}

			}
, 			{
				"box" : 				{
					"id" : "obj-66",
					"maxclass" : "newobj",
					"numinlets" : 2,
					"numoutlets" : 1,
					"outlettype" : [ "int" ],
					"patching_rect" : [ 102.666669726371765, 476.000014185905457, 40.0, 22.0 ],
					"text" : "zl.find"
				}

			}
, 			{
				"box" : 				{
					"id" : "obj-65",
					"maxclass" : "newobj",
					"numinlets" : 2,
					"numoutlets" : 2,
					"outlettype" : [ "", "" ],
					"patching_rect" : [ 157.333338022232056, 557.333349943161011, 56.0, 22.0 ],
					"text" : "zl lookup"
				}

			}
, 			{
				"box" : 				{
					"id" : "obj-62",
					"maxclass" : "newobj",
					"numinlets" : 2,
					"numoutlets" : 3,
					"outlettype" : [ "bang", "bang", "int" ],
					"patching_rect" : [ 86.666669249534607, 384.000011444091797, 40.0, 22.0 ],
					"text" : "Uzi"
				}

			}
, 			{
				"box" : 				{
					"id" : "obj-61",
					"maxclass" : "newobj",
					"numinlets" : 2,
					"numoutlets" : 1,
					"outlettype" : [ "" ],
					"patching_rect" : [ 86.666669249534607, 412.000012278556824, 73.0, 22.0 ],
					"text" : "random 127"
				}

			}
, 			{
				"box" : 				{
					"id" : "obj-60",
					"maxclass" : "newobj",
					"numinlets" : 2,
					"numoutlets" : 2,
					"outlettype" : [ "", "" ],
					"patching_rect" : [ 124.000003695487976, 446.666679978370667, 51.0, 22.0 ],
					"text" : "zl.group"
				}

			}
, 			{
				"box" : 				{
					"id" : "obj-59",
					"maxclass" : "newobj",
					"numinlets" : 1,
					"numoutlets" : 2,
					"outlettype" : [ "bang", "int" ],
					"patching_rect" : [ 86.666669249534607, 346.666676998138428, 40.0, 22.0 ],
					"text" : "t b i"
				}

			}
, 			{
				"box" : 				{
					"id" : "obj-17",
					"maxclass" : "button",
					"numinlets" : 1,
					"numoutlets" : 1,
					"outlettype" : [ "bang" ],
					"parameter_enable" : 0,
					"patching_rect" : [ 86.666669249534607, 88.00000262260437, 24.0, 24.0 ]
				}

			}
, 			{
				"box" : 				{
					"id" : "obj-2",
					"maxclass" : "newobj",
					"numinlets" : 2,
					"numoutlets" : 1,
					"outlettype" : [ "" ],
					"patching_rect" : [ 86.666669249534607, 113.333336710929871, 66.0, 22.0 ],
					"text" : "random 10"
				}

			}
, 			{
				"box" : 				{
					"id" : "obj-11",
					"maxclass" : "newobj",
					"numinlets" : 3,
					"numoutlets" : 2,
					"outlettype" : [ "float", "float" ],
					"patching_rect" : [ 157.333338022232056, 608.000018119812012, 115.0, 22.0 ],
					"text" : "makenote 100 1000"
				}

			}
 ],
		"lines" : [ 			{
				"patchline" : 				{
					"destination" : [ "obj-109", 0 ],
					"source" : [ "obj-100", 0 ]
				}

			}
, 			{
				"patchline" : 				{
					"destination" : [ "obj-103", 1 ],
					"midpoints" : [ 185.333338260650635, 220.66665518283844, 225.166672468185425, 220.66665518283844 ],
					"order" : 1,
					"source" : [ "obj-102", 1 ]
				}

			}
, 			{
				"patchline" : 				{
					"destination" : [ "obj-103", 0 ],
					"midpoints" : [ 174.833338260650635, 220.66665518283844, 204.166672468185425, 220.66665518283844 ],
					"source" : [ "obj-102", 0 ]
				}

			}
, 			{
				"patchline" : 				{
					"destination" : [ "obj-104", 1 ],
					"midpoints" : [ 185.333338260650635, 501.66665518283844, 236.166672468185425, 501.66665518283844 ],
					"order" : 0,
					"source" : [ "obj-102", 1 ]
				}

			}
, 			{
				"patchline" : 				{
					"destination" : [ "obj-99", 0 ],
					"source" : [ "obj-103", 0 ]
				}

			}
, 			{
				"patchline" : 				{
					"destination" : [ "obj-65", 1 ],
					"source" : [ "obj-104", 0 ]
				}

			}
, 			{
				"patchline" : 				{
					"destination" : [ "obj-104", 0 ],
					"source" : [ "obj-108", 0 ]
				}

			}
, 			{
				"patchline" : 				{
					"destination" : [ "obj-116", 0 ],
					"source" : [ "obj-109", 0 ]
				}

			}
, 			{
				"patchline" : 				{
					"destination" : [ "obj-118", 1 ],
					"source" : [ "obj-11", 1 ]
				}

			}
, 			{
				"patchline" : 				{
					"destination" : [ "obj-118", 0 ],
					"source" : [ "obj-11", 0 ]
				}

			}
, 			{
				"patchline" : 				{
					"destination" : [ "obj-111", 0 ],
					"source" : [ "obj-110", 0 ]
				}

			}
, 			{
				"patchline" : 				{
					"destination" : [ "obj-117", 1 ],
					"source" : [ "obj-111", 0 ]
				}

			}
, 			{
				"patchline" : 				{
					"destination" : [ "obj-110", 0 ],
					"source" : [ "obj-116", 1 ]
				}

			}
, 			{
				"patchline" : 				{
					"destination" : [ "obj-117", 0 ],
					"source" : [ "obj-116", 0 ]
				}

			}
, 			{
				"patchline" : 				{
					"destination" : [ "obj-108", 0 ],
					"source" : [ "obj-117", 0 ]
				}

			}
, 			{
				"patchline" : 				{
					"destination" : [ "obj-126", 1 ],
					"source" : [ "obj-118", 1 ]
				}

			}
, 			{
				"patchline" : 				{
					"destination" : [ "obj-126", 0 ],
					"source" : [ "obj-118", 0 ]
				}

			}
, 			{
				"patchline" : 				{
					"destination" : [ "obj-118", 0 ],
					"midpoints" : [ 569.500016689300537, 640.66665518283844, 166.833338022232056, 640.66665518283844 ],
					"source" : [ "obj-119", 0 ]
				}

			}
, 			{
				"patchline" : 				{
					"destination" : [ "obj-119", 0 ],
					"source" : [ "obj-120", 0 ]
				}

			}
, 			{
				"patchline" : 				{
					"destination" : [ "obj-90", 0 ],
					"midpoints" : [ 290.833341717720032, 504.66665518283844, 328.166676163673401, 504.66665518283844 ],
					"source" : [ "obj-123", 0 ]
				}

			}
, 			{
				"patchline" : 				{
					"destination" : [ "obj-96", 0 ],
					"midpoints" : [ 382.833344459533691, 504.66665518283844, 420.166678905487061, 504.66665518283844 ],
					"source" : [ "obj-124", 0 ]
				}

			}
, 			{
				"patchline" : 				{
					"destination" : [ "obj-140", 0 ],
					"source" : [ "obj-126", 0 ]
				}

			}
, 			{
				"patchline" : 				{
					"destination" : [ "obj-141", 0 ],
					"source" : [ "obj-126", 1 ]
				}

			}
, 			{
				"patchline" : 				{
					"destination" : [ "obj-131", 0 ],
					"midpoints" : [ 473.500013828277588, 501.999988436698914, 513.500015020370483, 501.999988436698914 ],
					"source" : [ "obj-127", 0 ]
				}

			}
, 			{
				"patchline" : 				{
					"destination" : [ "obj-136", 0 ],
					"source" : [ "obj-128", 0 ]
				}

			}
, 			{
				"patchline" : 				{
					"destination" : [ "obj-130", 0 ],
					"source" : [ "obj-129", 0 ]
				}

			}
, 			{
				"patchline" : 				{
					"destination" : [ "obj-133", 0 ],
					"source" : [ "obj-130", 0 ]
				}

			}
, 			{
				"patchline" : 				{
					"destination" : [ "obj-128", 1 ],
					"source" : [ "obj-131", 0 ]
				}

			}
, 			{
				"patchline" : 				{
					"destination" : [ "obj-129", 1 ],
					"order" : 1,
					"source" : [ "obj-132", 1 ]
				}

			}
, 			{
				"patchline" : 				{
					"destination" : [ "obj-129", 0 ],
					"source" : [ "obj-132", 0 ]
				}

			}
, 			{
				"patchline" : 				{
					"destination" : [ "obj-131", 1 ],
					"midpoints" : [ 494.500013828277588, 382.273491501808167, 545.500015020370483, 382.273491501808167 ],
					"order" : 0,
					"source" : [ "obj-132", 1 ]
				}

			}
, 			{
				"patchline" : 				{
					"destination" : [ "obj-127", 0 ],
					"source" : [ "obj-133", 0 ]
				}

			}
, 			{
				"patchline" : 				{
					"destination" : [ "obj-126", 2 ],
					"midpoints" : [ 476.166680574417114, 680.333321690559387, 358.833338022232056, 680.333321690559387 ],
					"source" : [ "obj-134", 0 ]
				}

			}
, 			{
				"patchline" : 				{
					"destination" : [ "obj-134", 0 ],
					"source" : [ "obj-136", 0 ]
				}

			}
, 			{
				"patchline" : 				{
					"destination" : [ "obj-2", 0 ],
					"source" : [ "obj-17", 0 ]
				}

			}
, 			{
				"patchline" : 				{
					"destination" : [ "obj-79", 0 ],
					"source" : [ "obj-2", 0 ]
				}

			}
, 			{
				"patchline" : 				{
					"destination" : [ "obj-66", 0 ],
					"midpoints" : [ 37.500000834465027, 463.66665518283844, 112.166669726371765, 463.66665518283844 ],
					"source" : [ "obj-28", 0 ]
				}

			}
, 			{
				"patchline" : 				{
					"destination" : [ "obj-100", 1 ],
					"midpoints" : [ 317.500009179115295, 286.66665518283844, 241.166672468185425, 286.66665518283844 ],
					"order" : 0,
					"source" : [ "obj-29", 0 ]
				}

			}
, 			{
				"patchline" : 				{
					"destination" : [ "obj-98", 0 ],
					"midpoints" : [ 317.500009179115295, 219.66665518283844, 245.500007033348083, 219.66665518283844 ],
					"order" : 1,
					"source" : [ "obj-29", 0 ]
				}

			}
, 			{
				"patchline" : 				{
					"destination" : [ "obj-17", 0 ],
					"source" : [ "obj-345", 0 ]
				}

			}
, 			{
				"patchline" : 				{
					"destination" : [ "obj-60", 1 ],
					"midpoints" : [ 117.166669249534607, 379.66665518283844, 165.500003695487976, 379.66665518283844 ],
					"order" : 0,
					"source" : [ "obj-59", 1 ]
				}

			}
, 			{
				"patchline" : 				{
					"destination" : [ "obj-62", 1 ],
					"order" : 1,
					"source" : [ "obj-59", 1 ]
				}

			}
, 			{
				"patchline" : 				{
					"destination" : [ "obj-62", 0 ],
					"source" : [ "obj-59", 0 ]
				}

			}
, 			{
				"patchline" : 				{
					"destination" : [ "obj-66", 1 ],
					"source" : [ "obj-60", 0 ]
				}

			}
, 			{
				"patchline" : 				{
					"destination" : [ "obj-60", 0 ],
					"midpoints" : [ 96.166669249534607, 439.66665518283844, 133.500003695487976, 439.66665518283844 ],
					"source" : [ "obj-61", 0 ]
				}

			}
, 			{
				"patchline" : 				{
					"destination" : [ "obj-61", 0 ],
					"source" : [ "obj-62", 0 ]
				}

			}
, 			{
				"patchline" : 				{
					"destination" : [ "obj-11", 0 ],
					"source" : [ "obj-65", 0 ]
				}

			}
, 			{
				"patchline" : 				{
					"destination" : [ "obj-73", 0 ],
					"source" : [ "obj-66", 0 ]
				}

			}
, 			{
				"patchline" : 				{
					"destination" : [ "obj-128", 0 ],
					"midpoints" : [ 112.166669726371765, 544.66665518283844, 476.166680574417114, 544.66665518283844 ],
					"order" : 0,
					"source" : [ "obj-73", 0 ]
				}

			}
, 			{
				"patchline" : 				{
					"destination" : [ "obj-65", 0 ],
					"midpoints" : [ 112.166669726371765, 544.66665518283844, 166.833338022232056, 544.66665518283844 ],
					"order" : 3,
					"source" : [ "obj-73", 0 ]
				}

			}
, 			{
				"patchline" : 				{
					"destination" : [ "obj-92", 0 ],
					"midpoints" : [ 112.166669726371765, 544.66665518283844, 290.833341717720032, 544.66665518283844 ],
					"order" : 2,
					"source" : [ "obj-73", 0 ]
				}

			}
, 			{
				"patchline" : 				{
					"destination" : [ "obj-93", 0 ],
					"midpoints" : [ 112.166669726371765, 544.66665518283844, 382.833344459533691, 544.66665518283844 ],
					"order" : 1,
					"source" : [ "obj-73", 0 ]
				}

			}
, 			{
				"patchline" : 				{
					"destination" : [ "obj-102", 0 ],
					"midpoints" : [ 96.166669249534607, 172.66665518283844, 174.833338260650635, 172.66665518283844 ],
					"order" : 3,
					"source" : [ "obj-79", 0 ]
				}

			}
, 			{
				"patchline" : 				{
					"destination" : [ "obj-132", 0 ],
					"midpoints" : [ 96.166669249534607, 172.66665518283844, 473.500013828277588, 172.66665518283844 ],
					"order" : 0,
					"source" : [ "obj-79", 0 ]
				}

			}
, 			{
				"patchline" : 				{
					"destination" : [ "obj-59", 0 ],
					"order" : 4,
					"source" : [ "obj-79", 0 ]
				}

			}
, 			{
				"patchline" : 				{
					"destination" : [ "obj-91", 0 ],
					"midpoints" : [ 96.166669249534607, 172.66665518283844, 290.833341717720032, 172.66665518283844 ],
					"order" : 2,
					"source" : [ "obj-79", 0 ]
				}

			}
, 			{
				"patchline" : 				{
					"destination" : [ "obj-97", 0 ],
					"midpoints" : [ 96.166669249534607, 172.66665518283844, 382.833344459533691, 172.66665518283844 ],
					"order" : 1,
					"source" : [ "obj-79", 0 ]
				}

			}
, 			{
				"patchline" : 				{
					"destination" : [ "obj-89", 0 ],
					"source" : [ "obj-88", 0 ]
				}

			}
, 			{
				"patchline" : 				{
					"destination" : [ "obj-123", 0 ],
					"source" : [ "obj-89", 0 ]
				}

			}
, 			{
				"patchline" : 				{
					"destination" : [ "obj-92", 1 ],
					"source" : [ "obj-90", 0 ]
				}

			}
, 			{
				"patchline" : 				{
					"destination" : [ "obj-88", 1 ],
					"order" : 1,
					"source" : [ "obj-91", 1 ]
				}

			}
, 			{
				"patchline" : 				{
					"destination" : [ "obj-88", 0 ],
					"source" : [ "obj-91", 0 ]
				}

			}
, 			{
				"patchline" : 				{
					"destination" : [ "obj-90", 1 ],
					"midpoints" : [ 311.833341717720032, 410.66665518283844, 360.166676163673401, 410.66665518283844 ],
					"order" : 0,
					"source" : [ "obj-91", 1 ]
				}

			}
, 			{
				"patchline" : 				{
					"destination" : [ "obj-11", 1 ],
					"midpoints" : [ 290.833341717720032, 595.66665518283844, 214.833338022232056, 595.66665518283844 ],
					"source" : [ "obj-92", 0 ]
				}

			}
, 			{
				"patchline" : 				{
					"destination" : [ "obj-11", 2 ],
					"midpoints" : [ 382.833344459533691, 595.66665518283844, 262.833338022232056, 595.66665518283844 ],
					"source" : [ "obj-93", 0 ]
				}

			}
, 			{
				"patchline" : 				{
					"destination" : [ "obj-95", 0 ],
					"source" : [ "obj-94", 0 ]
				}

			}
, 			{
				"patchline" : 				{
					"destination" : [ "obj-124", 0 ],
					"source" : [ "obj-95", 0 ]
				}

			}
, 			{
				"patchline" : 				{
					"destination" : [ "obj-93", 1 ],
					"source" : [ "obj-96", 0 ]
				}

			}
, 			{
				"patchline" : 				{
					"destination" : [ "obj-94", 1 ],
					"order" : 1,
					"source" : [ "obj-97", 1 ]
				}

			}
, 			{
				"patchline" : 				{
					"destination" : [ "obj-94", 0 ],
					"source" : [ "obj-97", 0 ]
				}

			}
, 			{
				"patchline" : 				{
					"destination" : [ "obj-96", 1 ],
					"midpoints" : [ 403.833344459533691, 415.606825828552246, 452.166678905487061, 415.606825828552246 ],
					"order" : 0,
					"source" : [ "obj-97", 1 ]
				}

			}
, 			{
				"patchline" : 				{
					"destination" : [ "obj-99", 1 ],
					"source" : [ "obj-98", 0 ]
				}

			}
, 			{
				"patchline" : 				{
					"destination" : [ "obj-100", 0 ],
					"source" : [ "obj-99", 0 ]
				}

			}
 ],
		"dependency_cache" : [ 			{
				"name" : "stereoPan.gendsp",
				"bootpath" : "~/code/audio/audio_utils/gen/utility",
				"patcherrelativepath" : "../../audio_utils/gen/utility",
				"type" : "gDSP",
				"implicit" : 1
			}
, 			{
				"name" : "zl.find.maxpat",
				"bootpath" : "~/code/audio/gradient_music/abstractions",
				"patcherrelativepath" : "../abstractions",
				"type" : "JSON",
				"implicit" : 1
			}
 ],
		"autosave" : 0
	}

}
