{
	"patcher" : 	{
		"fileversion" : 1,
		"appversion" : 		{
			"major" : 8,
			"minor" : 6,
			"revision" : 5,
			"architecture" : "x64",
			"modernui" : 1
		}
,
		"classnamespace" : "box",
		"rect" : [ 34.0, 77.0, 1468.0, 705.0 ],
		"bglocked" : 0,
		"openinpresentation" : 0,
		"default_fontsize" : 12.0,
		"default_fontface" : 0,
		"default_fontname" : "Arial",
		"gridonopen" : 1,
		"gridsize" : [ 15.0, 15.0 ],
		"gridsnaponopen" : 1,
		"objectsnaponopen" : 1,
		"statusbarvisible" : 2,
		"toolbarvisible" : 1,
		"lefttoolbarpinned" : 0,
		"toptoolbarpinned" : 0,
		"righttoolbarpinned" : 0,
		"bottomtoolbarpinned" : 0,
		"toolbars_unpinned_last_save" : 0,
		"tallnewobj" : 0,
		"boxanimatetime" : 200,
		"enablehscroll" : 1,
		"enablevscroll" : 1,
		"devicewidth" : 0.0,
		"description" : "",
		"digest" : "",
		"tags" : "",
		"style" : "",
		"subpatcher_template" : "",
		"assistshowspatchername" : 0,
		"boxes" : [ 			{
				"box" : 				{
					"id" : "obj-48",
					"lastchannelcount" : 0,
					"maxclass" : "live.gain~",
					"numinlets" : 2,
					"numoutlets" : 5,
					"outlettype" : [ "signal", "signal", "", "float", "list" ],
					"parameter_enable" : 1,
					"patching_rect" : [ 1147.0, 367.0, 48.0, 136.0 ],
					"saved_attribute_attributes" : 					{
						"valueof" : 						{
							"parameter_longname" : "live.gain~[5]",
							"parameter_mmax" : 6.0,
							"parameter_mmin" : -70.0,
							"parameter_modmode" : 3,
							"parameter_shortname" : "live.gain~",
							"parameter_type" : 0,
							"parameter_unitstyle" : 4
						}

					}
,
					"varname" : "live.gain~[5]"
				}

			}
, 			{
				"box" : 				{
					"id" : "obj-47",
					"maxclass" : "newobj",
					"numinlets" : 0,
					"numoutlets" : 1,
					"outlettype" : [ "" ],
					"patching_rect" : [ 1512.0, 267.0, 52.0, 22.0 ],
					"text" : "r chords"
				}

			}
, 			{
				"box" : 				{
					"id" : "obj-45",
					"maxclass" : "newobj",
					"numinlets" : 0,
					"numoutlets" : 1,
					"outlettype" : [ "" ],
					"patching_rect" : [ 1414.0, 267.0, 42.0, 22.0 ],
					"text" : "r ends"
				}

			}
, 			{
				"box" : 				{
					"id" : "obj-46",
					"maxclass" : "newobj",
					"numinlets" : 0,
					"numoutlets" : 1,
					"outlettype" : [ "" ],
					"patching_rect" : [ 1316.0, 267.0, 28.0, 22.0 ],
					"text" : "r ctl"
				}

			}
, 			{
				"box" : 				{
					"id" : "obj-44",
					"maxclass" : "newobj",
					"numinlets" : 5,
					"numoutlets" : 2,
					"outlettype" : [ "signal", "signal" ],
					"patching_rect" : [ 1120.0, 298.0, 411.0, 22.0 ],
					"text" : "piano_FX_module"
				}

			}
, 			{
				"box" : 				{
					"id" : "obj-38",
					"maxclass" : "newobj",
					"numinlets" : 0,
					"numoutlets" : 1,
					"outlettype" : [ "" ],
					"patching_rect" : [ 1218.0, 235.0, 52.0, 22.0 ],
					"text" : "r chords"
				}

			}
, 			{
				"box" : 				{
					"id" : "obj-39",
					"maxclass" : "newobj",
					"numinlets" : 0,
					"numoutlets" : 1,
					"outlettype" : [ "" ],
					"patching_rect" : [ 1169.0, 235.0, 42.0, 22.0 ],
					"text" : "r ends"
				}

			}
, 			{
				"box" : 				{
					"id" : "obj-30",
					"maxclass" : "newobj",
					"numinlets" : 0,
					"numoutlets" : 1,
					"outlettype" : [ "" ],
					"patching_rect" : [ 1120.0, 235.0, 35.0, 22.0 ],
					"text" : "r raw"
				}

			}
, 			{
				"box" : 				{
					"id" : "obj-13",
					"maxclass" : "newobj",
					"numinlets" : 1,
					"numoutlets" : 0,
					"patching_rect" : [ 21.0, 135.0, 37.0, 22.0 ],
					"text" : "s raw"
				}

			}
, 			{
				"box" : 				{
					"id" : "obj-8",
					"maxclass" : "newobj",
					"numinlets" : 3,
					"numoutlets" : 2,
					"outlettype" : [ "signal", "signal" ],
					"patching_rect" : [ 1120.0, 267.0, 117.0, 22.0 ],
					"text" : "piano_module"
				}

			}
, 			{
				"box" : 				{
					"id" : "obj-86",
					"maxclass" : "newobj",
					"numinlets" : 2,
					"numoutlets" : 2,
					"outlettype" : [ "signal", "signal" ],
					"patching_rect" : [ 603.0, 522.0, 113.0, 22.0 ],
					"text" : "master_FX_module"
				}

			}
, 			{
				"box" : 				{
					"id" : "obj-84",
					"lastchannelcount" : 0,
					"maxclass" : "live.gain~",
					"numinlets" : 2,
					"numoutlets" : 5,
					"outlettype" : [ "signal", "signal", "", "float", "list" ],
					"parameter_enable" : 1,
					"patching_rect" : [ 356.0, 340.0, 48.0, 136.0 ],
					"saved_attribute_attributes" : 					{
						"valueof" : 						{
							"parameter_longname" : "live.gain~[4]",
							"parameter_mmax" : 6.0,
							"parameter_mmin" : -70.0,
							"parameter_modmode" : 3,
							"parameter_shortname" : "live.gain~",
							"parameter_type" : 0,
							"parameter_unitstyle" : 4
						}

					}
,
					"varname" : "live.gain~[4]"
				}

			}
, 			{
				"box" : 				{
					"id" : "obj-83",
					"lastchannelcount" : 0,
					"maxclass" : "live.gain~",
					"numinlets" : 2,
					"numoutlets" : 5,
					"outlettype" : [ "signal", "signal", "", "float", "list" ],
					"parameter_enable" : 1,
					"patching_rect" : [ 227.0, 340.0, 66.0, 136.0 ],
					"saved_attribute_attributes" : 					{
						"valueof" : 						{
							"parameter_longname" : "live.gain~[3]",
							"parameter_mmax" : 6.0,
							"parameter_mmin" : -70.0,
							"parameter_modmode" : 3,
							"parameter_shortname" : "live.gain~",
							"parameter_type" : 0,
							"parameter_unitstyle" : 4
						}

					}
,
					"varname" : "live.gain~[3]"
				}

			}
, 			{
				"box" : 				{
					"id" : "obj-82",
					"lastchannelcount" : 0,
					"maxclass" : "live.gain~",
					"numinlets" : 2,
					"numoutlets" : 5,
					"outlettype" : [ "signal", "signal", "", "float", "list" ],
					"parameter_enable" : 1,
					"patching_rect" : [ 45.0, 340.0, 48.0, 136.0 ],
					"saved_attribute_attributes" : 					{
						"valueof" : 						{
							"parameter_longname" : "live.gain~[2]",
							"parameter_mmax" : 6.0,
							"parameter_mmin" : -70.0,
							"parameter_modmode" : 3,
							"parameter_shortname" : "live.gain~",
							"parameter_type" : 0,
							"parameter_unitstyle" : 4
						}

					}
,
					"varname" : "live.gain~[2]"
				}

			}
, 			{
				"box" : 				{
					"id" : "obj-68",
					"maxclass" : "newobj",
					"numinlets" : 0,
					"numoutlets" : 1,
					"outlettype" : [ "" ],
					"patching_rect" : [ 650.0, 268.0, 42.0, 22.0 ],
					"text" : "r ends"
				}

			}
, 			{
				"box" : 				{
					"id" : "obj-69",
					"maxclass" : "newobj",
					"numinlets" : 0,
					"numoutlets" : 1,
					"outlettype" : [ "" ],
					"patching_rect" : [ 552.0, 266.0, 28.0, 22.0 ],
					"text" : "r ctl"
				}

			}
, 			{
				"box" : 				{
					"id" : "obj-70",
					"maxclass" : "newobj",
					"numinlets" : 4,
					"numoutlets" : 2,
					"outlettype" : [ "signal", "signal" ],
					"patching_rect" : [ 356.0, 298.0, 313.0, 22.0 ],
					"text" : "sho_FX_module"
				}

			}
, 			{
				"box" : 				{
					"id" : "obj-42",
					"maxclass" : "newobj",
					"numinlets" : 0,
					"numoutlets" : 1,
					"outlettype" : [ "" ],
					"patching_rect" : [ 1052.0, 266.0, 42.0, 22.0 ],
					"text" : "r ends"
				}

			}
, 			{
				"box" : 				{
					"id" : "obj-43",
					"maxclass" : "newobj",
					"numinlets" : 0,
					"numoutlets" : 1,
					"outlettype" : [ "" ],
					"patching_rect" : [ 954.0, 266.0, 28.0, 22.0 ],
					"text" : "r ctl"
				}

			}
, 			{
				"box" : 				{
					"id" : "obj-41",
					"maxclass" : "newobj",
					"numinlets" : 4,
					"numoutlets" : 2,
					"outlettype" : [ "signal", "signal" ],
					"patching_rect" : [ 758.0, 298.0, 313.0, 22.0 ],
					"text" : "melody_FX_module"
				}

			}
, 			{
				"box" : 				{
					"id" : "obj-40",
					"maxclass" : "comment",
					"numinlets" : 1,
					"numoutlets" : 0,
					"patching_rect" : [ 752.0, 200.0, 150.0, 20.0 ],
					"text" : "MELODY ___________"
				}

			}
, 			{
				"box" : 				{
					"id" : "obj-27",
					"lastchannelcount" : 0,
					"maxclass" : "live.gain~",
					"numinlets" : 2,
					"numoutlets" : 5,
					"outlettype" : [ "signal", "signal", "", "float", "list" ],
					"parameter_enable" : 1,
					"patching_rect" : [ 758.0, 340.0, 48.0, 136.0 ],
					"saved_attribute_attributes" : 					{
						"valueof" : 						{
							"parameter_longname" : "live.gain~[1]",
							"parameter_mmax" : 6.0,
							"parameter_mmin" : -70.0,
							"parameter_modmode" : 3,
							"parameter_shortname" : "live.gain~",
							"parameter_type" : 0,
							"parameter_unitstyle" : 4
						}

					}
,
					"varname" : "live.gain~[1]"
				}

			}
, 			{
				"box" : 				{
					"id" : "obj-15",
					"maxclass" : "newobj",
					"numinlets" : 0,
					"numoutlets" : 1,
					"outlettype" : [ "" ],
					"patching_rect" : [ 856.0, 231.0, 52.0, 22.0 ],
					"text" : "r chords"
				}

			}
, 			{
				"box" : 				{
					"id" : "obj-16",
					"maxclass" : "newobj",
					"numinlets" : 0,
					"numoutlets" : 1,
					"outlettype" : [ "" ],
					"patching_rect" : [ 807.0, 231.0, 42.0, 22.0 ],
					"text" : "r ends"
				}

			}
, 			{
				"box" : 				{
					"id" : "obj-26",
					"maxclass" : "newobj",
					"numinlets" : 0,
					"numoutlets" : 1,
					"outlettype" : [ "" ],
					"patching_rect" : [ 758.0, 231.0, 28.0, 22.0 ],
					"text" : "r ctl"
				}

			}
, 			{
				"box" : 				{
					"id" : "obj-6",
					"maxclass" : "newobj",
					"numinlets" : 3,
					"numoutlets" : 2,
					"outlettype" : [ "signal", "signal" ],
					"patching_rect" : [ 758.0, 266.0, 117.0, 22.0 ],
					"text" : "melody_module"
				}

			}
, 			{
				"box" : 				{
					"channels" : 1,
					"id" : "obj-14",
					"lastchannelcount" : 0,
					"maxclass" : "live.gain~",
					"numinlets" : 1,
					"numoutlets" : 4,
					"outlettype" : [ "signal", "", "float", "list" ],
					"parameter_enable" : 1,
					"patching_rect" : [ 180.5, 340.0, 48.0, 136.0 ],
					"saved_attribute_attributes" : 					{
						"valueof" : 						{
							"parameter_longname" : "live.gain~",
							"parameter_mmax" : 6.0,
							"parameter_mmin" : -70.0,
							"parameter_modmode" : 3,
							"parameter_shortname" : "live.gain~",
							"parameter_type" : 0,
							"parameter_unitstyle" : 4
						}

					}
,
					"varname" : "live.gain~"
				}

			}
, 			{
				"box" : 				{
					"id" : "obj-37",
					"maxclass" : "ezdac~",
					"numinlets" : 2,
					"numoutlets" : 0,
					"patching_rect" : [ 375.0, 661.0, 45.0, 45.0 ]
				}

			}
, 			{
				"box" : 				{
					"id" : "obj-36",
					"maxclass" : "comment",
					"numinlets" : 1,
					"numoutlets" : 0,
					"patching_rect" : [ 356.0, 208.0, 150.0, 20.0 ],
					"text" : "SHO ___________"
				}

			}
, 			{
				"box" : 				{
					"id" : "obj-35",
					"maxclass" : "comment",
					"numinlets" : 1,
					"numoutlets" : 0,
					"patching_rect" : [ 180.5, 208.0, 150.0, 20.0 ],
					"text" : "BASS ___________"
				}

			}
, 			{
				"box" : 				{
					"id" : "obj-34",
					"maxclass" : "comment",
					"numinlets" : 1,
					"numoutlets" : 0,
					"patching_rect" : [ 17.5, 208.0, 150.0, 20.0 ],
					"text" : "NOISE ___________"
				}

			}
, 			{
				"box" : 				{
					"id" : "obj-31",
					"maxclass" : "newobj",
					"numinlets" : 0,
					"numoutlets" : 1,
					"outlettype" : [ "" ],
					"patching_rect" : [ 454.0, 239.0, 52.0, 22.0 ],
					"text" : "r chords"
				}

			}
, 			{
				"box" : 				{
					"id" : "obj-32",
					"maxclass" : "newobj",
					"numinlets" : 0,
					"numoutlets" : 1,
					"outlettype" : [ "" ],
					"patching_rect" : [ 405.0, 239.0, 42.0, 22.0 ],
					"text" : "r ends"
				}

			}
, 			{
				"box" : 				{
					"id" : "obj-33",
					"maxclass" : "newobj",
					"numinlets" : 0,
					"numoutlets" : 1,
					"outlettype" : [ "" ],
					"patching_rect" : [ 356.0, 239.0, 28.0, 22.0 ],
					"text" : "r ctl"
				}

			}
, 			{
				"box" : 				{
					"id" : "obj-29",
					"maxclass" : "comment",
					"numinlets" : 1,
					"numoutlets" : 0,
					"patching_rect" : [ 224.5, 17.0, 150.0, 20.0 ],
					"text" : "HARMONY ___________"
				}

			}
, 			{
				"box" : 				{
					"id" : "obj-28",
					"maxclass" : "comment",
					"numinlets" : 1,
					"numoutlets" : 0,
					"patching_rect" : [ 18.0, 17.0, 150.0, 20.0 ],
					"text" : "CONTROL ___________"
				}

			}
, 			{
				"box" : 				{
					"id" : "obj-25",
					"maxclass" : "newobj",
					"numinlets" : 0,
					"numoutlets" : 1,
					"outlettype" : [ "" ],
					"patching_rect" : [ 273.5, 239.0, 52.0, 22.0 ],
					"text" : "r chords"
				}

			}
, 			{
				"box" : 				{
					"id" : "obj-23",
					"maxclass" : "newobj",
					"numinlets" : 0,
					"numoutlets" : 1,
					"outlettype" : [ "" ],
					"patching_rect" : [ 226.5, 239.0, 42.0, 22.0 ],
					"text" : "r ends"
				}

			}
, 			{
				"box" : 				{
					"id" : "obj-24",
					"maxclass" : "newobj",
					"numinlets" : 0,
					"numoutlets" : 1,
					"outlettype" : [ "" ],
					"patching_rect" : [ 180.5, 239.0, 28.0, 22.0 ],
					"text" : "r ctl"
				}

			}
, 			{
				"box" : 				{
					"id" : "obj-22",
					"maxclass" : "newobj",
					"numinlets" : 1,
					"numoutlets" : 0,
					"patching_rect" : [ 224.5, 103.0, 54.0, 22.0 ],
					"text" : "s chords"
				}

			}
, 			{
				"box" : 				{
					"id" : "obj-21",
					"maxclass" : "newobj",
					"numinlets" : 3,
					"numoutlets" : 3,
					"outlettype" : [ "signal", "signal", "signal" ],
					"patching_rect" : [ 180.5, 268.0, 112.0, 22.0 ],
					"text" : "bass_module"
				}

			}
, 			{
				"box" : 				{
					"id" : "obj-19",
					"maxclass" : "newobj",
					"numinlets" : 0,
					"numoutlets" : 1,
					"outlettype" : [ "" ],
					"patching_rect" : [ 306.5, 44.0, 42.0, 22.0 ],
					"text" : "r ends"
				}

			}
, 			{
				"box" : 				{
					"id" : "obj-20",
					"maxclass" : "newobj",
					"numinlets" : 0,
					"numoutlets" : 1,
					"outlettype" : [ "" ],
					"patching_rect" : [ 224.5, 44.0, 28.0, 22.0 ],
					"text" : "r ctl"
				}

			}
, 			{
				"box" : 				{
					"id" : "obj-18",
					"maxclass" : "newobj",
					"numinlets" : 2,
					"numoutlets" : 1,
					"outlettype" : [ "" ],
					"patching_rect" : [ 224.5, 73.0, 101.0, 22.0 ],
					"text" : "harmony_module"
				}

			}
, 			{
				"box" : 				{
					"id" : "obj-17",
					"maxclass" : "newobj",
					"numinlets" : 3,
					"numoutlets" : 2,
					"outlettype" : [ "signal", "signal" ],
					"patching_rect" : [ 356.0, 268.0, 117.0, 22.0 ],
					"text" : "sho_module"
				}

			}
, 			{
				"box" : 				{
					"id" : "obj-11",
					"maxclass" : "newobj",
					"numinlets" : 0,
					"numoutlets" : 1,
					"outlettype" : [ "" ],
					"patching_rect" : [ 109.0, 239.0, 42.0, 22.0 ],
					"text" : "r ends"
				}

			}
, 			{
				"box" : 				{
					"id" : "obj-12",
					"maxclass" : "newobj",
					"numinlets" : 0,
					"numoutlets" : 1,
					"outlettype" : [ "" ],
					"patching_rect" : [ 45.0, 239.0, 28.0, 22.0 ],
					"text" : "r ctl"
				}

			}
, 			{
				"box" : 				{
					"id" : "obj-10",
					"maxclass" : "newobj",
					"numinlets" : 2,
					"numoutlets" : 2,
					"outlettype" : [ "signal", "signal" ],
					"patching_rect" : [ 45.0, 268.0, 83.0, 22.0 ],
					"text" : "noise_module"
				}

			}
, 			{
				"box" : 				{
					"id" : "obj-9",
					"maxclass" : "message",
					"numinlets" : 2,
					"numoutlets" : 1,
					"outlettype" : [ "" ],
					"patching_rect" : [ 136.5, 99.0, 29.5, 22.0 ],
					"text" : "2"
				}

			}
, 			{
				"box" : 				{
					"id" : "obj-7",
					"maxclass" : "message",
					"numinlets" : 2,
					"numoutlets" : 1,
					"outlettype" : [ "" ],
					"patching_rect" : [ 98.0, 99.0, 29.5, 22.0 ],
					"text" : "1"
				}

			}
, 			{
				"box" : 				{
					"id" : "obj-5",
					"maxclass" : "newobj",
					"numinlets" : 1,
					"numoutlets" : 0,
					"patching_rect" : [ 98.0, 135.0, 44.0, 22.0 ],
					"text" : "s ends"
				}

			}
, 			{
				"box" : 				{
					"id" : "obj-4",
					"maxclass" : "newobj",
					"numinlets" : 1,
					"numoutlets" : 0,
					"patching_rect" : [ 59.5, 135.0, 30.0, 22.0 ],
					"text" : "s ctl"
				}

			}
, 			{
				"box" : 				{
					"id" : "obj-3",
					"maxclass" : "newobj",
					"numinlets" : 1,
					"numoutlets" : 5,
					"outlettype" : [ "int", "float", "bang", "bang", "float" ],
					"patching_rect" : [ 21.0, 72.0, 173.0, 22.0 ],
					"text" : "ctlinfo"
				}

			}
, 			{
				"box" : 				{
					"id" : "obj-2",
					"maxclass" : "newobj",
					"numinlets" : 1,
					"numoutlets" : 2,
					"outlettype" : [ "int", "int" ],
					"patching_rect" : [ 21.0, 44.0, 40.0, 22.0 ],
					"text" : "ctlin 0"
				}

			}
, 			{
				"box" : 				{
					"id" : "obj-1",
					"maxclass" : "newobj",
					"numinlets" : 0,
					"numoutlets" : 0,
					"patching_rect" : [ 610.0, 55.0, 54.0, 22.0 ],
					"text" : "topology"
				}

			}
 ],
		"lines" : [ 			{
				"patchline" : 				{
					"destination" : [ "obj-82", 1 ],
					"source" : [ "obj-10", 1 ]
				}

			}
, 			{
				"patchline" : 				{
					"destination" : [ "obj-82", 0 ],
					"source" : [ "obj-10", 0 ]
				}

			}
, 			{
				"patchline" : 				{
					"destination" : [ "obj-10", 1 ],
					"source" : [ "obj-11", 0 ]
				}

			}
, 			{
				"patchline" : 				{
					"destination" : [ "obj-10", 0 ],
					"source" : [ "obj-12", 0 ]
				}

			}
, 			{
				"patchline" : 				{
					"destination" : [ "obj-37", 1 ],
					"order" : 0,
					"source" : [ "obj-14", 0 ]
				}

			}
, 			{
				"patchline" : 				{
					"destination" : [ "obj-37", 0 ],
					"order" : 1,
					"source" : [ "obj-14", 0 ]
				}

			}
, 			{
				"patchline" : 				{
					"destination" : [ "obj-6", 2 ],
					"source" : [ "obj-15", 0 ]
				}

			}
, 			{
				"patchline" : 				{
					"destination" : [ "obj-6", 1 ],
					"source" : [ "obj-16", 0 ]
				}

			}
, 			{
				"patchline" : 				{
					"destination" : [ "obj-70", 1 ],
					"source" : [ "obj-17", 1 ]
				}

			}
, 			{
				"patchline" : 				{
					"destination" : [ "obj-70", 0 ],
					"source" : [ "obj-17", 0 ]
				}

			}
, 			{
				"patchline" : 				{
					"destination" : [ "obj-22", 0 ],
					"source" : [ "obj-18", 0 ]
				}

			}
, 			{
				"patchline" : 				{
					"destination" : [ "obj-18", 1 ],
					"source" : [ "obj-19", 0 ]
				}

			}
, 			{
				"patchline" : 				{
					"destination" : [ "obj-3", 0 ],
					"source" : [ "obj-2", 0 ]
				}

			}
, 			{
				"patchline" : 				{
					"destination" : [ "obj-18", 0 ],
					"source" : [ "obj-20", 0 ]
				}

			}
, 			{
				"patchline" : 				{
					"destination" : [ "obj-14", 0 ],
					"source" : [ "obj-21", 0 ]
				}

			}
, 			{
				"patchline" : 				{
					"destination" : [ "obj-83", 1 ],
					"source" : [ "obj-21", 2 ]
				}

			}
, 			{
				"patchline" : 				{
					"destination" : [ "obj-83", 0 ],
					"source" : [ "obj-21", 1 ]
				}

			}
, 			{
				"patchline" : 				{
					"destination" : [ "obj-21", 1 ],
					"source" : [ "obj-23", 0 ]
				}

			}
, 			{
				"patchline" : 				{
					"destination" : [ "obj-21", 0 ],
					"source" : [ "obj-24", 0 ]
				}

			}
, 			{
				"patchline" : 				{
					"destination" : [ "obj-21", 2 ],
					"source" : [ "obj-25", 0 ]
				}

			}
, 			{
				"patchline" : 				{
					"destination" : [ "obj-6", 0 ],
					"source" : [ "obj-26", 0 ]
				}

			}
, 			{
				"patchline" : 				{
					"destination" : [ "obj-37", 1 ],
					"order" : 1,
					"source" : [ "obj-27", 1 ]
				}

			}
, 			{
				"patchline" : 				{
					"destination" : [ "obj-37", 0 ],
					"order" : 1,
					"source" : [ "obj-27", 0 ]
				}

			}
, 			{
				"patchline" : 				{
					"destination" : [ "obj-86", 1 ],
					"order" : 0,
					"source" : [ "obj-27", 1 ]
				}

			}
, 			{
				"patchline" : 				{
					"destination" : [ "obj-86", 0 ],
					"order" : 0,
					"source" : [ "obj-27", 0 ]
				}

			}
, 			{
				"patchline" : 				{
					"destination" : [ "obj-13", 0 ],
					"source" : [ "obj-3", 0 ]
				}

			}
, 			{
				"patchline" : 				{
					"destination" : [ "obj-4", 0 ],
					"source" : [ "obj-3", 1 ]
				}

			}
, 			{
				"patchline" : 				{
					"destination" : [ "obj-7", 0 ],
					"source" : [ "obj-3", 2 ]
				}

			}
, 			{
				"patchline" : 				{
					"destination" : [ "obj-9", 0 ],
					"source" : [ "obj-3", 3 ]
				}

			}
, 			{
				"patchline" : 				{
					"destination" : [ "obj-8", 0 ],
					"source" : [ "obj-30", 0 ]
				}

			}
, 			{
				"patchline" : 				{
					"destination" : [ "obj-17", 2 ],
					"source" : [ "obj-31", 0 ]
				}

			}
, 			{
				"patchline" : 				{
					"destination" : [ "obj-17", 1 ],
					"source" : [ "obj-32", 0 ]
				}

			}
, 			{
				"patchline" : 				{
					"destination" : [ "obj-17", 0 ],
					"source" : [ "obj-33", 0 ]
				}

			}
, 			{
				"patchline" : 				{
					"destination" : [ "obj-8", 2 ],
					"source" : [ "obj-38", 0 ]
				}

			}
, 			{
				"patchline" : 				{
					"destination" : [ "obj-8", 1 ],
					"source" : [ "obj-39", 0 ]
				}

			}
, 			{
				"patchline" : 				{
					"destination" : [ "obj-27", 1 ],
					"source" : [ "obj-41", 1 ]
				}

			}
, 			{
				"patchline" : 				{
					"destination" : [ "obj-27", 0 ],
					"source" : [ "obj-41", 0 ]
				}

			}
, 			{
				"patchline" : 				{
					"destination" : [ "obj-41", 3 ],
					"source" : [ "obj-42", 0 ]
				}

			}
, 			{
				"patchline" : 				{
					"destination" : [ "obj-41", 2 ],
					"source" : [ "obj-43", 0 ]
				}

			}
, 			{
				"patchline" : 				{
					"destination" : [ "obj-48", 1 ],
					"source" : [ "obj-44", 1 ]
				}

			}
, 			{
				"patchline" : 				{
					"destination" : [ "obj-48", 0 ],
					"source" : [ "obj-44", 0 ]
				}

			}
, 			{
				"patchline" : 				{
					"destination" : [ "obj-44", 3 ],
					"source" : [ "obj-45", 0 ]
				}

			}
, 			{
				"patchline" : 				{
					"destination" : [ "obj-44", 2 ],
					"source" : [ "obj-46", 0 ]
				}

			}
, 			{
				"patchline" : 				{
					"destination" : [ "obj-44", 4 ],
					"source" : [ "obj-47", 0 ]
				}

			}
, 			{
				"patchline" : 				{
					"destination" : [ "obj-37", 1 ],
					"order" : 1,
					"source" : [ "obj-48", 1 ]
				}

			}
, 			{
				"patchline" : 				{
					"destination" : [ "obj-37", 0 ],
					"order" : 1,
					"source" : [ "obj-48", 0 ]
				}

			}
, 			{
				"patchline" : 				{
					"destination" : [ "obj-86", 1 ],
					"order" : 0,
					"source" : [ "obj-48", 1 ]
				}

			}
, 			{
				"patchline" : 				{
					"destination" : [ "obj-86", 0 ],
					"order" : 0,
					"source" : [ "obj-48", 0 ]
				}

			}
, 			{
				"patchline" : 				{
					"destination" : [ "obj-41", 1 ],
					"source" : [ "obj-6", 1 ]
				}

			}
, 			{
				"patchline" : 				{
					"destination" : [ "obj-41", 0 ],
					"source" : [ "obj-6", 0 ]
				}

			}
, 			{
				"patchline" : 				{
					"destination" : [ "obj-70", 3 ],
					"source" : [ "obj-68", 0 ]
				}

			}
, 			{
				"patchline" : 				{
					"destination" : [ "obj-70", 2 ],
					"source" : [ "obj-69", 0 ]
				}

			}
, 			{
				"patchline" : 				{
					"destination" : [ "obj-5", 0 ],
					"source" : [ "obj-7", 0 ]
				}

			}
, 			{
				"patchline" : 				{
					"destination" : [ "obj-84", 1 ],
					"source" : [ "obj-70", 1 ]
				}

			}
, 			{
				"patchline" : 				{
					"destination" : [ "obj-84", 0 ],
					"source" : [ "obj-70", 0 ]
				}

			}
, 			{
				"patchline" : 				{
					"destination" : [ "obj-44", 1 ],
					"source" : [ "obj-8", 1 ]
				}

			}
, 			{
				"patchline" : 				{
					"destination" : [ "obj-44", 0 ],
					"source" : [ "obj-8", 0 ]
				}

			}
, 			{
				"patchline" : 				{
					"destination" : [ "obj-37", 1 ],
					"order" : 1,
					"source" : [ "obj-82", 1 ]
				}

			}
, 			{
				"patchline" : 				{
					"destination" : [ "obj-37", 0 ],
					"order" : 1,
					"source" : [ "obj-82", 0 ]
				}

			}
, 			{
				"patchline" : 				{
					"destination" : [ "obj-86", 1 ],
					"order" : 0,
					"source" : [ "obj-82", 1 ]
				}

			}
, 			{
				"patchline" : 				{
					"destination" : [ "obj-86", 0 ],
					"order" : 0,
					"source" : [ "obj-82", 0 ]
				}

			}
, 			{
				"patchline" : 				{
					"destination" : [ "obj-37", 1 ],
					"order" : 1,
					"source" : [ "obj-83", 1 ]
				}

			}
, 			{
				"patchline" : 				{
					"destination" : [ "obj-37", 0 ],
					"order" : 1,
					"source" : [ "obj-83", 0 ]
				}

			}
, 			{
				"patchline" : 				{
					"destination" : [ "obj-86", 1 ],
					"order" : 0,
					"source" : [ "obj-83", 1 ]
				}

			}
, 			{
				"patchline" : 				{
					"destination" : [ "obj-86", 0 ],
					"order" : 0,
					"source" : [ "obj-83", 0 ]
				}

			}
, 			{
				"patchline" : 				{
					"destination" : [ "obj-37", 1 ],
					"order" : 1,
					"source" : [ "obj-84", 1 ]
				}

			}
, 			{
				"patchline" : 				{
					"destination" : [ "obj-37", 0 ],
					"order" : 1,
					"source" : [ "obj-84", 0 ]
				}

			}
, 			{
				"patchline" : 				{
					"destination" : [ "obj-86", 1 ],
					"order" : 0,
					"source" : [ "obj-84", 1 ]
				}

			}
, 			{
				"patchline" : 				{
					"destination" : [ "obj-86", 0 ],
					"order" : 0,
					"source" : [ "obj-84", 0 ]
				}

			}
, 			{
				"patchline" : 				{
					"destination" : [ "obj-37", 1 ],
					"source" : [ "obj-86", 1 ]
				}

			}
, 			{
				"patchline" : 				{
					"destination" : [ "obj-37", 0 ],
					"source" : [ "obj-86", 0 ]
				}

			}
, 			{
				"patchline" : 				{
					"destination" : [ "obj-5", 0 ],
					"midpoints" : [ 146.0, 127.0, 107.5, 127.0 ],
					"source" : [ "obj-9", 0 ]
				}

			}
 ],
		"parameters" : 		{
			"obj-14" : [ "live.gain~", "live.gain~", 0 ],
			"obj-27" : [ "live.gain~[1]", "live.gain~", 0 ],
			"obj-48" : [ "live.gain~[5]", "live.gain~", 0 ],
			"obj-82" : [ "live.gain~[2]", "live.gain~", 0 ],
			"obj-83" : [ "live.gain~[3]", "live.gain~", 0 ],
			"obj-84" : [ "live.gain~[4]", "live.gain~", 0 ],
			"parameterbanks" : 			{
				"0" : 				{
					"index" : 0,
					"name" : "",
					"parameters" : [ "-", "-", "-", "-", "-", "-", "-", "-" ]
				}

			}
,
			"inherited_shortname" : 1
		}
,
		"dependency_cache" : [ 			{
				"name" : "AD.gendsp",
				"bootpath" : "~/code/audio/audio_utils/gen/envelopes",
				"patcherrelativepath" : "../audio_utils/gen/envelopes",
				"type" : "gDSP",
				"implicit" : 1
			}
, 			{
				"name" : "FM_feedback.gendsp",
				"bootpath" : "~/code/max msp/assets/gen",
				"patcherrelativepath" : "../../max msp/assets/gen",
				"type" : "gDSP",
				"implicit" : 1
			}
, 			{
				"name" : "allpass.gendsp",
				"bootpath" : "~/code/audio/audio_utils/gen/filters",
				"patcherrelativepath" : "../audio_utils/gen/filters",
				"type" : "gDSP",
				"implicit" : 1
			}
, 			{
				"name" : "bass_module.maxpat",
				"bootpath" : "~/code/audio/gradient_music/modules",
				"patcherrelativepath" : "./modules",
				"type" : "JSON",
				"implicit" : 1
			}
, 			{
				"name" : "cross.gendsp",
				"bootpath" : "~/code/audio/audio_utils/gen/filters",
				"patcherrelativepath" : "../audio_utils/gen/filters",
				"type" : "gDSP",
				"implicit" : 1
			}
, 			{
				"name" : "ctlinfo.maxpat",
				"bootpath" : "~/code/audio/gradient_music/abstractions",
				"patcherrelativepath" : "./abstractions",
				"type" : "JSON",
				"implicit" : 1
			}
, 			{
				"name" : "harmony4Max.js",
				"bootpath" : "~/code/max msp/js/node",
				"patcherrelativepath" : "../../max msp/js/node",
				"type" : "TEXT",
				"implicit" : 1
			}
, 			{
				"name" : "harmony_module.maxpat",
				"bootpath" : "~/code/audio/gradient_music/modules",
				"patcherrelativepath" : "./modules",
				"type" : "JSON",
				"implicit" : 1
			}
, 			{
				"name" : "list.interp.maxpat",
				"bootpath" : "~/code/audio/audio_utils/abstractions/list",
				"patcherrelativepath" : "../audio_utils/abstractions/list",
				"type" : "JSON",
				"implicit" : 1
			}
, 			{
				"name" : "list.random.maxpat",
				"bootpath" : "~/code/audio/audio_utils/abstractions/list",
				"patcherrelativepath" : "../audio_utils/abstractions/list",
				"type" : "JSON",
				"implicit" : 1
			}
, 			{
				"name" : "list_interp.maxpat",
				"bootpath" : "~/code/audio/gradient_music/abstractions",
				"patcherrelativepath" : "./abstractions",
				"type" : "JSON",
				"implicit" : 1
			}
, 			{
				"name" : "loop_delay.gendsp",
				"bootpath" : "~/code/audio/audio_utils/gen/effects",
				"patcherrelativepath" : "../audio_utils/gen/effects",
				"type" : "gDSP",
				"implicit" : 1
			}
, 			{
				"name" : "lores.gendsp",
				"bootpath" : "~/code/audio/audio_utils/gen/filters",
				"patcherrelativepath" : "../audio_utils/gen/filters",
				"type" : "gDSP",
				"implicit" : 1
			}
, 			{
				"name" : "master_FX_module.maxpat",
				"bootpath" : "~/code/audio/gradient_music/modules",
				"patcherrelativepath" : "./modules",
				"type" : "JSON",
				"implicit" : 1
			}
, 			{
				"name" : "melody_FX_module.maxpat",
				"bootpath" : "~/code/audio/gradient_music/modules",
				"patcherrelativepath" : "./modules",
				"type" : "JSON",
				"implicit" : 1
			}
, 			{
				"name" : "melody_module.maxpat",
				"bootpath" : "~/code/audio/gradient_music/modules",
				"patcherrelativepath" : "./modules",
				"type" : "JSON",
				"implicit" : 1
			}
, 			{
				"name" : "morph.gendsp",
				"bootpath" : "~/code/audio/audio_utils/gen/synthesis",
				"patcherrelativepath" : "../audio_utils/gen/synthesis",
				"type" : "gDSP",
				"implicit" : 1
			}
, 			{
				"name" : "noise_module.maxpat",
				"bootpath" : "~/code/audio/gradient_music/modules",
				"patcherrelativepath" : "./modules",
				"type" : "JSON",
				"implicit" : 1
			}
, 			{
				"name" : "octave_fuzz.gendsp",
				"bootpath" : "~/code/audio/gradient_music/gen",
				"patcherrelativepath" : "./gen",
				"type" : "gDSP",
				"implicit" : 1
			}
, 			{
				"name" : "onepole.gendsp",
				"bootpath" : "~/code/audio/audio_utils/gen/filters",
				"patcherrelativepath" : "../audio_utils/gen/filters",
				"type" : "gDSP",
				"implicit" : 1
			}
, 			{
				"name" : "piano_FX_module.maxpat",
				"bootpath" : "~/code/audio/gradient_music/modules",
				"patcherrelativepath" : "./modules",
				"type" : "JSON",
				"implicit" : 1
			}
, 			{
				"name" : "piano_module.maxpat",
				"bootpath" : "~/code/audio/gradient_music/modules",
				"patcherrelativepath" : "./modules",
				"type" : "JSON",
				"implicit" : 1
			}
, 			{
				"name" : "pitchshift.gendsp",
				"bootpath" : "~/code/audio/gradient_music/gen",
				"patcherrelativepath" : "./gen",
				"type" : "gDSP",
				"implicit" : 1
			}
, 			{
				"name" : "random_list.maxpat",
				"bootpath" : "~/code/audio/gradient_music/abstractions",
				"patcherrelativepath" : "./abstractions",
				"type" : "JSON",
				"implicit" : 1
			}
, 			{
				"name" : "shift_delay.gendsp",
				"bootpath" : "~/code/audio/gradient_music/gen",
				"patcherrelativepath" : "./gen",
				"type" : "gDSP",
				"implicit" : 1
			}
, 			{
				"name" : "sho_FX_module.maxpat",
				"bootpath" : "~/code/audio/gradient_music/modules",
				"patcherrelativepath" : "./modules",
				"type" : "JSON",
				"implicit" : 1
			}
, 			{
				"name" : "sho_gen.gendsp",
				"bootpath" : "~/code/audio/gradient_music/gen",
				"patcherrelativepath" : "./gen",
				"type" : "gDSP",
				"implicit" : 1
			}
, 			{
				"name" : "sho_module.maxpat",
				"bootpath" : "~/code/audio/gradient_music/modules",
				"patcherrelativepath" : "./modules",
				"type" : "JSON",
				"implicit" : 1
			}
, 			{
				"name" : "simple_FM_p.maxpat",
				"bootpath" : "~/code/audio/gradient_music/abstractions",
				"patcherrelativepath" : "./abstractions",
				"type" : "JSON",
				"implicit" : 1
			}
, 			{
				"name" : "simple_poly.maxpat",
				"bootpath" : "~/code/audio/gradient_music/misc",
				"patcherrelativepath" : "./misc",
				"type" : "JSON",
				"implicit" : 1
			}
, 			{
				"name" : "smooth.gendsp",
				"bootpath" : "~/code/audio/audio_utils/gen/utility",
				"patcherrelativepath" : "../audio_utils/gen/utility",
				"type" : "gDSP",
				"implicit" : 1
			}
, 			{
				"name" : "st_pan.gendsp",
				"bootpath" : "~/code/audio/audio_utils/gen/utility",
				"patcherrelativepath" : "../audio_utils/gen/utility",
				"type" : "gDSP",
				"implicit" : 1
			}
, 			{
				"name" : "st_stereoVerb.gendsp",
				"bootpath" : "~/code/audio/audio_utils/gen/effects",
				"patcherrelativepath" : "../audio_utils/gen/effects",
				"type" : "gDSP",
				"implicit" : 1
			}
, 			{
				"name" : "stereoPan.gendsp",
				"bootpath" : "~/code/audio/audio_utils/gen/utility",
				"patcherrelativepath" : "../audio_utils/gen/utility",
				"type" : "gDSP",
				"implicit" : 1
			}
, 			{
				"name" : "stereo_chorus.gendsp",
				"bootpath" : "~/code/audio/gradient_music/gen",
				"patcherrelativepath" : "./gen",
				"type" : "gDSP",
				"implicit" : 1
			}
, 			{
				"name" : "stereo_phaser.gendsp",
				"bootpath" : "~/code/audio/gradient_music/gen",
				"patcherrelativepath" : "./gen",
				"type" : "gDSP",
				"implicit" : 1
			}
, 			{
				"name" : "topology.maxpat",
				"bootpath" : "~/code/max msp",
				"patcherrelativepath" : "../../max msp",
				"type" : "JSON",
				"implicit" : 1
			}
, 			{
				"name" : "tukey.gendsp",
				"bootpath" : "~/code/audio/audio_utils/gen/windows",
				"patcherrelativepath" : "../audio_utils/gen/windows",
				"type" : "gDSP",
				"implicit" : 1
			}
, 			{
				"name" : "varispeed_delay.gendsp",
				"bootpath" : "~/code/audio/gradient_music/gen",
				"patcherrelativepath" : "./gen",
				"type" : "gDSP",
				"implicit" : 1
			}
, 			{
				"name" : "vel_ranges.txt",
				"bootpath" : "~/code/audio/gradient_music/misc",
				"patcherrelativepath" : "./misc",
				"type" : "TEXT",
				"implicit" : 1
			}
, 			{
				"name" : "xfade.gendsp",
				"bootpath" : "~/code/audio/audio_utils/gen/utility",
				"patcherrelativepath" : "../audio_utils/gen/utility",
				"type" : "gDSP",
				"implicit" : 1
			}
, 			{
				"name" : "zl.find.maxpat",
				"bootpath" : "~/code/audio/gradient_music/abstractions",
				"patcherrelativepath" : "./abstractions",
				"type" : "JSON",
				"implicit" : 1
			}
, 			{
				"name" : "zl.splice.maxpat",
				"bootpath" : "~/code/audio/gradient_music/abstractions",
				"patcherrelativepath" : "./abstractions",
				"type" : "JSON",
				"implicit" : 1
			}
, 			{
				"name" : "合竹.txt",
				"bootpath" : "~/code/audio/gradient_music/misc",
				"patcherrelativepath" : "./misc",
				"type" : "TEXT",
				"implicit" : 1
			}
 ],
		"autosave" : 0
	}

}
